<svg xmlns="http://www.w3.org/2000/svg" width="93.717" height="48.626" viewBox="0 0 93.717 48.626">
    <defs>
        <clipPath id="g2uzqrxvga">
            <path data-name="사각형 2172" style="fill:none" d="M0 0h93.717v48.626H0z"/>
        </clipPath>
    </defs>
    <g data-name="그룹 919" style="clip-path:url(#g2uzqrxvga)">
        <path data-name="패스 47" d="M0 26.7a7.311 7.311 0 0 1 .62-2.951A9.154 9.154 0 0 1 2.259 21.2h1.385a10.489 10.489 0 0 0-.984 1.506 8.742 8.742 0 0 0-.62 1.421 7.313 7.313 0 0 0-.3 1.323 7.538 7.538 0 0 0-.1 1.251 6.969 6.969 0 0 0 .1 1.227 5.893 5.893 0 0 0 .34 1.3 8.749 8.749 0 0 0 .608 1.421 10.547 10.547 0 0 0 .935 1.53H2.259a8.029 8.029 0 0 1-.9-1.191 7.655 7.655 0 0 1-.716-1.36 7.892 7.892 0 0 1-.473-1.454A6.088 6.088 0 0 1 0 26.7" transform="translate(0 -4.958)" style="fill:#fff"/>
        <path data-name="패스 48" d="M15.071 27.6v1.8h-4.148v2.779H8.9V29.4H4.756v-1.8zM13.688 23H11.2l3.139 2.7-1.384 1.258-3.07-2.658-3.041 2.655L5.46 25.7 8.614 23h-2.49v-1.8h7.563z" transform="translate(-1.112 -4.958)" style="fill:#fff"/>
        <path data-name="패스 49" d="M21.846 26.7a6.722 6.722 0 0 1-.17 1.469 10.158 10.158 0 0 1-.486 1.457 11.005 11.005 0 0 1-.729 1.36 10.1 10.1 0 0 1-.886 1.191h-1.361a15.466 15.466 0 0 0 .948-1.53 14.082 14.082 0 0 0 .62-1.421 9.043 9.043 0 0 0 .328-1.3 8.374 8.374 0 0 0 .1-1.227 11.293 11.293 0 0 0-.085-1.251 10.36 10.36 0 0 0-.328-1.323 11.346 11.346 0 0 0-.62-1.421A12.82 12.82 0 0 0 18.2 21.2h1.373a10.107 10.107 0 0 1 1.651 2.551 7.3 7.3 0 0 1 .62 2.951" transform="translate(-4.257 -4.958)" style="fill:#fff"/>
        <path data-name="패스 50" d="M29.742 16.955v11.218h5.617v3.016h-9.026V16.955z" transform="translate(-6.158 -3.965)" style="fill:#fff"/>
        <path data-name="패스 51" d="M61.961 23.08h-2.173v8.109h-3.333V23.08h-2.173v-2.866h2.172v-3.258h3.334v3.258h2.173z" transform="translate(-12.694 -3.965)" style="fill:#fff"/>
        <path data-name="패스 52" d="M73.18 23.08h-2.173v8.109h-3.333V23.08H65.5v-2.866h2.173v-3.258h3.333v3.258h2.174z" transform="translate(-15.317 -3.965)" style="fill:#fff"/>
        <path data-name="패스 53" d="M44.309 20.868a5.748 5.748 0 1 0 5.751 5.751 5.746 5.746 0 0 0-5.751-5.751m0 8.448a2.7 2.7 0 1 1 2.7-2.7 2.7 2.7 0 0 1-2.7 2.7" transform="translate(-9.018 -4.88)" style="fill:#0099db"/>
        <path data-name="패스 54" d="M111.442 0a2.7 2.7 0 1 0 2.7 2.7 2.7 2.7 0 0 0-2.7-2.7" transform="translate(-25.43)" style="fill:#8e8e8f"/>
        <path data-name="패스 55" d="M81.951 20.868a5.748 5.748 0 1 0 5.749 5.751 5.747 5.747 0 0 0-5.751-5.751m0 8.448a2.7 2.7 0 1 1 2.7-2.7 2.7 2.7 0 0 1-2.7 2.7" transform="translate(-17.82 -4.88)" style="fill:#f38200"/>
        <path data-name="패스 56" d="M81.951 38.825a5.748 5.748 0 1 0 5.749 5.751 5.746 5.746 0 0 0-5.751-5.751m0 8.448a2.7 2.7 0 1 1 2.7-2.7 2.7 2.7 0 0 1-2.7 2.7" transform="translate(-17.82 -9.079)" style="fill:#fff"/>
        <path data-name="패스 57" d="M39.7 39.087v3.943h-2.081a5.748 5.748 0 1 0-.027 3.18h2.1v3.855h3.526V39.087zm-7.62 8.189a2.7 2.7 0 1 1 2.709-2.7 2.7 2.7 0 0 1-2.709 2.7" transform="translate(-6.159 -9.078)" style="fill:#fff"/>
        <path data-name="패스 58" d="M58.49 50.14h-3.517v-7.747h-4.852v-3.227h8.369v3.945h1.562v-3.945H63.4V50.14h-3.348v-3.853H58.49zm9.752 0h-3.373V39.165h3.373z" transform="translate(-11.721 -9.159)" style="fill:#fff"/>
        <path data-name="패스 59" d="M94.26 57.785H81.232v-5.908h3.54V54.7h9.488zm0-7.645h-3.517V39.165h3.517z" transform="translate(-18.996 -9.159)" style="fill:#fff"/>
        <path data-name="패스 60" d="M101.342 7.821a7.89 7.89 0 1 0-8.193 7.934 10.414 10.414 0 0 1 8.193-7.934" transform="translate(-20.009)" style="fill:#0099db"/>
        <path data-name="패스 61" d="M105.534 9.95a10.454 10.454 0 0 0-1.96.2c0 .025.007.048.007.072a7.893 7.893 0 0 1-7.893 7.893c-.1 0-.2-.027-.307-.031a10.415 10.415 0 1 0 10.153-8.134" transform="translate(-22.241 -2.327)" style="fill:#f38200"/>
        <path data-name="패스 62" d="M103.665 10.28c0-.025-.007-.048-.008-.072a10.414 10.414 0 0 0-8.192 7.934c.1 0 .2.031.307.031a7.893 7.893 0 0 0 7.893-7.893" transform="translate(-22.324 -2.387)" style="fill:#002076"/>
        <path data-name="패스 63" d="m103.375 25.111.545-.734a1.846 1.846 0 0 0 1.3.6c.591 0 .994-.292.994-.813 0-.576-.339-.931-1.609-.931V22.4c1.073 0 1.42-.371 1.42-.892a.7.7 0 0 0-.781-.734 1.674 1.674 0 0 0-1.1.521l-.591-.709a2.587 2.587 0 0 1 1.751-.718c1.129 0 1.893.552 1.893 1.554a1.382 1.382 0 0 1-.978 1.333v.039a1.46 1.46 0 0 1 1.168 1.436 1.823 1.823 0 0 1-2.051 1.7 2.48 2.48 0 0 1-1.956-.813" transform="translate(-24.174 -4.645)" style="fill:#fff"/>
        <path data-name="패스 64" d="M112.921 21.223a1.265 1.265 0 0 0-.9-.427c-.67 0-1.223.5-1.269 1.964a1.7 1.7 0 0 1 1.2-.623 1.6 1.6 0 0 1 1.674 1.837 1.829 1.829 0 0 1-1.831 1.949c-1.112 0-2.1-.892-2.1-2.95 0-2.177 1.081-3.108 2.256-3.108a2.161 2.161 0 0 1 1.586.663zm-.362 2.752c0-.693-.325-1.017-.829-1.017a1.152 1.152 0 0 0-.955.616c.11 1.064.5 1.475.994 1.475.434 0 .79-.363.79-1.073" transform="translate(-25.652 -4.645)" style="fill:#fff"/>
        <path data-name="패스 65" d="m93.885 11.281.412-.555a1.4 1.4 0 0 0 .985.454c.448 0 .753-.221.753-.615 0-.436-.257-.7-1.219-.7v-.639c.812 0 1.075-.28 1.075-.675A.528.528 0 0 0 95.3 8a1.264 1.264 0 0 0-.837.394l-.447-.537a1.957 1.957 0 0 1 1.325-.543c.854 0 1.433.418 1.433 1.176a1.046 1.046 0 0 1-.74 1.009v.03a1.106 1.106 0 0 1 .883 1.087 1.38 1.38 0 0 1-1.551 1.284 1.878 1.878 0 0 1-1.481-.615" transform="translate(-21.955 -1.709)" style="fill:#fff"/>
    </g>
</svg>
