<svg xmlns="http://www.w3.org/2000/svg" width="185.999" height="96.507" viewBox="0 0 185.999 96.507">
    <defs>
        <clipPath id="ihxefgdula">
            <path data-name="사각형 2161" style="fill:none" d="M0 0h185.999v96.507H0z"/>
        </clipPath>
    </defs>
    <g data-name="그룹 906" style="clip-path:url(#ihxefgdula)">
        <path data-name="패스 13" d="M0 38.172a14.525 14.525 0 0 1 1.229-5.857 18.181 18.181 0 0 1 3.254-5.062h2.749a20.835 20.835 0 0 0-1.952 2.989 17.255 17.255 0 0 0-1.23 2.82 14.564 14.564 0 0 0-.6 2.626 14.841 14.841 0 0 0-.193 2.483 13.734 13.734 0 0 0 .193 2.435 11.63 11.63 0 0 0 .675 2.579 17.367 17.367 0 0 0 1.2 2.82 21.206 21.206 0 0 0 1.856 3.037h-2.7A15.992 15.992 0 0 1 2.7 46.68a15.109 15.109 0 0 1-1.422-2.7 15.641 15.641 0 0 1-.94-2.892A12.085 12.085 0 0 1 0 38.172" transform="translate(0 4.988)" style="fill:#5f5e5e"/>
        <path data-name="패스 14" d="M26.585 39.96v3.568h-8.233v5.516h-4.006v-5.516H6.113V39.96zm-2.745-9.139H18.9l6.23 5.352-2.746 2.5-6.091-5.273-6.036 5.27-2.746-2.5 6.258-5.352H8.83v-3.565h15.01z" transform="translate(1.119 4.988)" style="fill:#5f5e5e"/>
        <path data-name="패스 15" d="M30.628 38.172a13.4 13.4 0 0 1-.337 2.916 20.329 20.329 0 0 1-.964 2.892 22.127 22.127 0 0 1-1.447 2.7 19.865 19.865 0 0 1-1.759 2.362h-2.7a30.852 30.852 0 0 0 1.88-3.037 28.074 28.074 0 0 0 1.23-2.82 17.789 17.789 0 0 0 .651-2.579 16.55 16.55 0 0 0 .192-2.435 22.469 22.469 0 0 0-.168-2.483 20.894 20.894 0 0 0-.651-2.626 22.785 22.785 0 0 0-1.23-2.82 25.66 25.66 0 0 0-1.925-2.989h2.72a20.024 20.024 0 0 1 3.28 5.062 14.505 14.505 0 0 1 1.229 5.857" transform="translate(4.282 4.988)" style="fill:#5f5e5e"/>
        <path data-name="패스 16" d="M40.612 21.794v22.264h11.147v5.985H33.847V21.794z" transform="translate(6.194 3.988)" style="fill:#5f5e5e"/>
        <path data-name="패스 17" d="M85.011 33.948H80.7v16.094h-6.617V33.948h-4.312v-5.687h4.312v-6.467H80.7v6.467h4.312z" transform="translate(12.768 3.988)" style="fill:#5f5e5e"/>
        <path data-name="패스 18" d="M99.431 33.948h-4.312v16.094H88.5V33.948h-4.308v-5.687H88.5v-6.467h6.615v6.467h4.312z" transform="translate(15.407 3.988)" style="fill:#5f5e5e"/>
        <path data-name="패스 19" d="M60.971 26.822a11.409 11.409 0 1 0 11.414 11.415 11.4 11.4 0 0 0-11.414-11.415m0 16.768a5.358 5.358 0 1 1 5.364-5.353 5.356 5.356 0 0 1-5.364 5.353" transform="translate(9.071 4.909)" style="fill:#005dab"/>
        <path data-name="패스 20" d="M145.127 0a5.358 5.358 0 1 0 5.364 5.364A5.357 5.357 0 0 0 145.127 0" transform="translate(25.579)" style="fill:#8e8e8f"/>
        <path data-name="패스 21" d="M109.353 26.823a11.408 11.408 0 1 0 11.414 11.414 11.4 11.4 0 0 0-11.414-11.414m0 16.767a5.358 5.358 0 1 1 5.364-5.353 5.355 5.355 0 0 1-5.364 5.353" transform="translate(17.925 4.909)" style="fill:#f38200"/>
        <path data-name="패스 22" d="M109.353 49.9a11.409 11.409 0 1 0 11.414 11.415A11.406 11.406 0 0 0 109.353 49.9m0 16.768a5.358 5.358 0 1 1 5.364-5.353 5.356 5.356 0 0 1-5.364 5.353" transform="translate(17.925 9.133)" style="fill:#5f5e5e"/>
        <path data-name="패스 23" d="M60.365 50.426v7.827h-4.124a11.409 11.409 0 1 0-.053 6.31h4.177v7.65h7V50.426zM45.241 66.678a5.358 5.358 0 1 1 5.377-5.359 5.353 5.353 0 0 1-5.377 5.359" transform="translate(6.196 9.131)" style="fill:#5f5e5e"/>
        <path data-name="패스 24" d="M81.031 72.122h-6.98V56.747h-9.628v-6.406h16.608v7.829h3.1v-7.829h6.646v21.781h-6.645v-7.646h-3.1zm19.355 0h-6.693V50.341h6.693z" transform="translate(11.79 9.213)" style="fill:#5f5e5e"/>
        <path data-name="패스 25" d="M130.266 87.294H104.41V75.57h7.028v5.605h18.828zm0-15.172h-6.979V50.341h6.979z" transform="translate(19.107 9.213)" style="fill:#5f5e5e"/>
        <path data-name="패스 26" d="M141.294 15.522a15.658 15.658 0 1 0-16.26 15.747 20.668 20.668 0 0 1 16.26-15.747" transform="translate(20.126)" style="fill:#005dab"/>
        <path data-name="패스 27" d="M142.938 12.79a20.661 20.661 0 0 0-3.89.393c0 .049.014.093.014.142A15.666 15.666 0 0 1 123.4 28.991c-.209 0-.4-.053-.609-.062a20.671 20.671 0 1 0 20.15-16.14" transform="translate(22.372 2.341)" style="fill:#f38200"/>
        <path data-name="패스 28" d="M138.98 13.264c0-.049-.014-.093-.014-.143A20.669 20.669 0 0 0 122.7 28.868c.206.008.4.062.609.062a15.666 15.666 0 0 0 15.671-15.666" transform="translate(22.456 2.401)" style="fill:#002076"/>
        <path data-name="패스 29" d="m132.872 35.946 1.08-1.456a3.671 3.671 0 0 0 2.584 1.19c1.174 0 1.972-.58 1.972-1.612 0-1.144-.674-1.848-3.194-1.848v-1.66c2.128 0 2.818-.736 2.818-1.77a1.386 1.386 0 0 0-1.55-1.456 3.314 3.314 0 0 0-2.192 1.034l-1.174-1.408a5.135 5.135 0 0 1 3.476-1.426c2.238 0 3.756 1.1 3.756 3.085a2.742 2.742 0 0 1-1.94 2.644v.078a2.9 2.9 0 0 1 2.318 2.85c0 2.131-1.863 3.367-4.072 3.367a4.922 4.922 0 0 1-3.881-1.612" transform="translate(24.316 4.673)" style="fill:#fff"/>
        <path data-name="패스 30" d="M147.4 28.227a2.508 2.508 0 0 0-1.784-.845c-1.331 0-2.428 1-2.521 3.9a3.368 3.368 0 0 1 2.379-1.237c1.942 0 3.321 1.159 3.321 3.647a3.629 3.629 0 0 1-3.634 3.868c-2.206 0-4.164-1.77-4.164-5.856 0-4.32 2.146-6.168 4.478-6.168a4.292 4.292 0 0 1 3.148 1.314zm-.719 5.463c0-1.376-.642-2.019-1.644-2.019a2.283 2.283 0 0 0-1.894 1.222c.22 2.112 1 2.928 1.972 2.928.862 0 1.566-.72 1.566-2.131" transform="translate(25.803 4.673)" style="fill:#fff"/>
        <path data-name="패스 31" d="m120.675 17.278.817-1.1a2.784 2.784 0 0 0 1.957.9c.888 0 1.493-.438 1.493-1.221 0-.866-.51-1.4-2.418-1.4V13.2c1.611 0 2.133-.557 2.133-1.34a1.049 1.049 0 0 0-1.172-1.1 2.511 2.511 0 0 0-1.66.782l-.888-1.066a3.888 3.888 0 0 1 2.631-1.079c1.7 0 2.844.829 2.844 2.335a2.076 2.076 0 0 1-1.469 2v.059a2.194 2.194 0 0 1 1.754 2.158c0 1.614-1.41 2.549-3.083 2.549a3.727 3.727 0 0 1-2.939-1.221" transform="translate(22.084 1.719)" style="fill:#fff"/>
    </g>
</svg>
